<svg width="1085" height="1085" viewBox="0 0 1085 1085" fill="none" xmlns="http://www.w3.org/2000/svg">
<path d="M1012.22 283.461C963.709 200.343 897.906 134.537 814.795 86.0307C731.671 37.5217 640.925 13.2733 542.491 13.2733C444.07 13.2733 353.294 37.5291 270.188 86.0307C187.069 134.535 121.269 200.343 72.7574 283.461C24.2533 366.578 0 457.341 0 555.75C0 673.961 34.4885 780.259 103.483 874.672C172.47 969.092 261.591 1034.43 370.838 1070.69C383.555 1073.05 392.969 1071.39 399.089 1065.75C405.213 1060.1 408.271 1053.03 408.271 1044.56C408.271 1043.15 408.149 1030.44 407.914 1006.42C407.672 982.4 407.558 961.445 407.558 943.565L391.311 946.375C380.952 948.273 367.884 949.077 352.107 948.85C336.337 948.629 319.966 946.977 303.016 943.904C286.059 940.858 270.287 933.795 255.687 922.728C241.095 911.662 230.737 897.176 224.613 879.294L217.55 863.039C212.842 852.217 205.429 840.196 195.303 827.019C185.177 813.83 174.936 804.888 164.577 800.18L159.632 796.64C156.336 794.287 153.278 791.449 150.451 788.156C147.625 784.863 145.51 781.568 144.097 778.268C142.682 774.965 143.855 772.256 147.628 770.13C151.401 768.005 158.219 766.973 168.113 766.973L182.235 769.084C191.654 770.971 203.304 776.61 217.201 786.034C231.09 795.45 242.508 807.692 251.457 822.754C262.293 842.066 275.349 856.782 290.661 866.908C305.961 877.035 321.386 882.089 336.924 882.089C352.461 882.089 365.88 880.912 377.186 878.569C388.481 876.213 399.077 872.673 408.971 867.967C413.209 836.403 424.748 812.155 443.578 795.205C416.739 792.385 392.61 788.137 371.177 782.488C349.756 776.833 327.621 767.654 304.785 754.927C281.937 742.218 262.984 726.436 247.919 707.608C232.852 688.771 220.486 664.04 210.84 633.438C201.189 602.824 196.362 567.509 196.362 527.484C196.362 470.493 214.967 421.997 252.169 381.966C234.742 339.12 236.387 291.089 257.11 237.877C270.767 233.634 291.02 236.818 317.858 247.409C344.702 258.006 364.356 267.083 376.84 274.609C389.324 282.133 399.327 288.508 406.863 293.679C450.666 281.44 495.87 275.319 542.486 275.319C589.103 275.319 634.316 281.44 678.122 293.679L704.963 276.734C723.319 265.428 744.994 255.066 769.937 245.648C794.896 236.234 813.981 233.641 827.172 237.884C848.355 291.099 850.243 339.128 832.811 381.974C870.011 422.004 888.623 470.513 888.623 527.491C888.623 567.516 883.779 602.943 874.143 633.792C864.494 664.646 852.022 689.352 836.722 707.962C821.405 726.569 802.33 742.228 779.495 754.935C756.654 767.651 734.511 776.83 713.091 782.486C691.66 788.142 667.531 792.392 640.692 795.217C665.171 816.4 677.412 849.837 677.412 895.514V1044.54C677.412 1053.01 680.356 1060.08 686.25 1065.73C692.135 1071.37 701.43 1073.03 714.147 1070.66C823.409 1034.41 912.53 969.073 981.515 874.652C1050.49 780.239 1084.99 673.941 1084.99 555.73C1084.97 457.334 1060.7 366.578 1012.22 283.461Z" fill="#53ff45"/>
</svg>
