<svg width="1085" height="1085" viewBox="0 0 1085 1085" fill="none" xmlns="http://www.w3.org/2000/svg">
<g clip-path="url(#clip0)">
<path fill-rule="evenodd" clip-rule="evenodd" d="M161.491 922.51C-48.6569 712.36 -48.6569 371.643 161.492 161.491C371.643 -48.6557 712.36 -48.6557 922.511 161.491C1132.66 371.641 1132.66 712.359 922.509 922.508C712.358 1132.66 371.641 1132.66 161.491 922.51V922.51ZM188.667 895.331C-6.47158 700.193 -6.47036 383.807 188.67 188.668C383.807 -6.47162 700.193 -6.47162 895.33 188.668C1090.47 383.807 1090.47 700.192 895.331 895.33C700.193 1090.47 383.806 1090.47 188.667 895.331V895.331ZM407.35 772.625L407.468 465.124H311.492L311.374 772.625H407.35ZM359.14 407.468C388.923 407.468 407.465 386.1 407.465 359.419C406.913 332.14 388.923 311.375 359.703 311.375C330.477 311.375 311.374 332.141 311.374 359.419C311.374 386.1 329.914 407.468 358.583 407.468H359.14V407.468ZM465.125 772.625H561.22V598.827C561.22 589.527 561.863 580.225 564.469 573.591C571.601 554.999 596.698 535.744 623.954 535.744C659.671 535.744 676.53 564.299 676.53 606.125L676.531 772.626L772.624 772.625V594.175C772.624 498.581 723.944 454.104 659.013 454.104C605.774 454.103 573.55 485.3 560.566 506.539H561.22L561.341 465.124H465.246C466.54 494.323 465.125 772.625 465.125 772.625Z" fill="#53ff45"/>
</g>
<defs>
<clipPath id="clip0">
<rect width="1085" height="1085" fill="white"/>
</clipPath>
</defs>
</svg>
